<svg width="19" height="25" viewBox="0 0 19 25" fill="none" xmlns="http://www.w3.org/2000/svg">
<path d="M8.30512 21C8.13976 21 8.00447 20.937 7.89924 20.8111C7.79401 20.6852 7.75643 20.5356 7.78649 20.3625L8.59826 14.3889H5.44139C5.2159 14.3889 5.0767 14.3259 5.02379 14.2C4.97147 14.0741 5.00545 13.9009 5.12571 13.6806L10.2669 4.25972C10.297 4.18102 10.3571 4.11806 10.4473 4.07083C10.5375 4.02361 10.6202 4 10.6953 4C10.8607 4 10.996 4.06296 11.1012 4.18889C11.2064 4.31481 11.244 4.46435 11.2139 4.6375L10.4022 10.6111H13.559C13.7845 10.6111 13.9234 10.6741 13.9757 10.8C14.0287 10.9259 13.995 11.0991 13.8747 11.3194L8.73355 20.7403C8.70349 20.819 8.64336 20.8819 8.55316 20.9292C8.46296 20.9764 8.38028 21 8.30512 21Z" fill="black"/>
</svg>
