<svg width="28" height="20" viewBox="0 0 28 20" fill="none" xmlns="http://www.w3.org/2000/svg">
<path d="M14.0213 0.284668C8.65715 0.284668 4.30858 4.63318 4.30858 9.9974C4.30858 12.378 5.16349 14.5589 6.58501 16.2478C9.18175 15.7416 12.4636 14.5064 15.7855 12.6435C18.9167 10.8875 21.5248 8.88776 23.2788 7.04727C22.0311 3.12342 18.3584 0.284668 14.0213 0.284668ZM23.3926 1.19529C22.515 1.19593 21.5197 1.32126 20.4522 1.54611C20.8589 1.85692 21.2426 2.20519 21.6 2.57061C22.2518 2.47004 22.8589 2.4097 23.3926 2.40928C24.8213 2.4078 25.68 2.77682 25.9917 3.30082C26.2186 3.68298 26.2347 4.22034 25.9442 4.97979C25.6538 5.73925 25.0595 6.66234 24.1895 7.64516C22.4496 9.61036 19.6511 11.8084 16.2502 13.7156C12.8493 15.6228 9.4849 16.8751 6.85996 17.3578C5.5475 17.5992 4.41715 17.646 3.58761 17.5096C2.75807 17.3731 2.27834 17.076 2.05091 16.6939C1.79473 16.2628 1.80764 15.6234 2.22177 14.7209C2.52114 14.0681 3.01998 13.3163 3.7015 12.5204C3.58082 12.0309 3.49486 11.5251 3.44531 11.0124C2.38461 12.1203 1.57897 13.2001 1.11193 14.2182C0.606127 15.3209 0.478051 16.4288 1.00755 17.3199C1.47757 18.1105 2.35958 18.5339 3.3979 18.7046C4.43616 18.8755 5.67367 18.8111 7.07801 18.553C7.61642 18.4539 8.18511 18.3195 8.76646 18.1641C10.2813 19.1418 12.0846 19.71 14.0212 19.71C19.3853 19.71 23.7339 15.3615 23.7339 9.99731C23.7339 9.94374 23.7349 9.88933 23.7339 9.83597C24.2283 9.37125 24.6866 8.90714 25.0904 8.45131C26.0242 7.39608 26.7124 6.37326 27.0822 5.40654C27.4519 4.43961 27.5048 3.46568 27.0348 2.67473C26.3876 1.58606 25.023 1.19354 23.3924 1.19522L23.3926 1.19529Z" fill="black"/>
</svg>
