<svg width="26" height="26" viewBox="0 0 26 26" fill="none" xmlns="http://www.w3.org/2000/svg">
<g clip-path="url(#clip0_137_2531)">
<path d="M0.126953 10.71C0.0507812 11.2959 0 11.8916 0 12.4971C0 17.8193 3.03164 22.4531 7.5207 24.9092L8.35859 23.21V11.6035L7.4293 10.71H0.126953ZM26 11.6035C26 10.71 25.0707 9.81641 24.1414 9.81641H16.7121C17.1742 8.0293 17.6414 6.24707 17.6414 5.35352C17.6414 3.56641 16.7121 1.78418 16.25 1.33496C16.2398 1.3252 15.7879 0.890625 14.8586 0.890625C13.4672 0.890625 13.4672 2.22852 13.4672 2.22852C13.4672 2.25293 13.0051 4.45996 13.0051 5.35352C13.0051 6.24707 11.1465 9.81641 10.2172 10.71L9.28789 11.1543V23.6543L10.2172 24.0986H20.4293C22.2879 24.0986 23.2172 23.2051 23.2172 22.3115C23.2172 21.418 22.2879 20.5244 21.3586 20.5244C23.2172 20.5244 24.1465 19.6309 24.1465 18.7373C24.1465 17.8438 23.2172 16.9502 22.2879 16.9502C24.1465 16.9502 25.0758 16.0566 25.0758 15.1631C25.0758 14.2695 24.1465 13.376 23.2172 13.376C25.0707 13.3906 26 12.4971 26 11.6035Z" fill="#B7B7B7"/>
</g>
<defs>
<clipPath id="clip0_137_2531">
<rect width="26" height="25" fill="white" transform="translate(0 0.5)"/>
</clipPath>
</defs>
</svg>
