<svg width="128" height="50" viewBox="0 0 128 50" fill="none" xmlns="http://www.w3.org/2000/svg">
<path d="M52.8221 37.0001C52.1955 37.0001 51.8823 36.6869 51.8823 36.0603V14.8197C51.8823 14.1932 52.1955 13.8799 52.8221 13.8799H55.3284C55.9549 13.8799 56.2682 14.1932 56.2682 14.8197V21.148C56.2682 21.5657 56.2473 21.9835 56.2056 22.4012H56.2995C56.7799 21.5762 57.3908 21.0123 58.1323 20.7094C58.8737 20.3962 59.7665 20.2395 60.8108 20.2395C62.4399 20.2395 63.787 20.7512 64.8522 21.7746C65.9173 22.798 66.4499 24.6672 66.4499 27.3824V36.0603C66.4499 36.6869 66.1366 37.0001 65.5101 37.0001H63.0038C62.3772 37.0001 62.0639 36.6869 62.0639 36.0603V28.5102C62.0639 26.2337 61.9073 24.7978 61.594 24.2025C61.2807 23.6073 60.6072 23.3097 59.5734 23.3097C58.4769 23.3097 57.6519 23.7378 57.0984 24.5941C56.545 25.44 56.2682 27.2048 56.2682 29.8886V36.0603C56.2682 36.6869 55.9549 37.0001 55.3284 37.0001H52.8221Z" fill="black"/>
<path d="M69.802 28.7765C69.802 26.1136 70.486 24.025 71.854 22.5108C73.2325 20.9966 75.2793 20.2395 77.9944 20.2395C80.7095 20.2395 82.751 20.9966 84.119 22.5108C85.4975 24.025 86.1867 26.1136 86.1867 28.7765C86.1867 31.4394 85.4975 33.5279 84.119 35.0421C82.751 36.5563 80.7095 37.3134 77.9944 37.3134C75.2793 37.3134 73.2325 36.5563 71.854 35.0421C70.486 33.5279 69.802 31.4394 69.802 28.7765ZM74.4386 28.7765C74.4386 30.7606 74.7415 32.1704 75.3471 33.0058C75.9633 33.8308 76.8457 34.2433 77.9944 34.2433C79.1431 34.2433 80.0203 33.8308 80.6259 33.0058C81.2421 32.1704 81.5501 30.7606 81.5501 28.7765C81.5501 26.7923 81.2421 25.3878 80.6259 24.5628C80.0203 23.7274 79.1431 23.3097 77.9944 23.3097C76.8457 23.3097 75.9633 23.7274 75.3471 24.5628C74.7415 25.3878 74.4386 26.7923 74.4386 28.7765Z" fill="black"/>
<path d="M90.51 43.2658C89.8834 43.2658 89.5702 42.9525 89.5702 42.3259V21.4927C89.5702 20.8661 89.8834 20.5528 90.51 20.5528H92.9849C93.5071 20.5528 93.789 20.8661 93.8308 21.4927L93.8935 22.4012H93.9561C94.4991 21.5031 95.1048 20.9183 95.7732 20.6468C96.4415 20.3753 97.2456 20.2395 98.1854 20.2395C100.639 20.2395 102.363 21.0906 103.355 22.7928C104.357 24.4845 104.858 26.4791 104.858 28.7765C104.858 31.0739 104.357 33.0737 103.355 34.7758C102.363 36.4676 100.639 37.3134 98.1854 37.3134C97.2456 37.3134 96.4415 37.1777 95.7732 36.9062C95.1048 36.6346 94.4991 36.0498 93.9561 35.1518H93.8935C93.9352 35.5695 93.9561 35.9872 93.9561 36.4049V42.3259C93.9561 42.9525 93.6428 43.2658 93.0163 43.2658H90.51ZM93.9561 29.4814C93.9561 30.8911 94.2328 32.0398 94.7863 32.9275C95.3502 33.8047 96.0238 34.2433 96.807 34.2433C98.2168 34.2433 99.1357 33.7524 99.5639 32.7708C100.002 31.7788 100.222 30.4473 100.222 28.7765C100.222 27.1056 100.002 25.7794 99.5639 24.7978C99.1357 23.8057 98.2168 23.3097 96.807 23.3097C96.0238 23.3097 95.3502 23.7535 94.7863 24.6411C94.2328 25.5183 93.9561 26.6618 93.9561 28.0716V29.4814Z" fill="black"/>
<path d="M108.195 35.4024C107.788 35.0578 107.756 34.567 108.101 33.93L108.821 32.6142C109.166 31.9772 109.725 31.9302 110.497 32.4732C111.145 32.9327 111.876 33.3086 112.69 33.601C113.505 33.883 114.413 34.024 115.416 34.024C116.794 34.024 117.781 33.6532 118.376 32.9118C118.972 32.1599 119.269 31.3193 119.269 30.3899C119.269 29.4396 118.914 28.5885 118.204 27.8366C117.505 27.0743 116.512 26.6931 115.228 26.6931H114.022C113.343 26.6931 113.004 26.4164 113.004 25.8629V24.1399C113.004 23.5655 113.343 23.2784 114.022 23.2784H114.962C115.922 23.2784 116.768 22.9807 117.499 22.3855C118.241 21.7903 118.611 21.0436 118.611 20.1455C118.611 19.4459 118.366 18.8663 117.875 18.4068C117.395 17.9369 116.606 17.7019 115.51 17.7019C114.476 17.7019 113.583 17.8534 112.831 18.1562C112.08 18.459 111.484 18.8245 111.046 19.2527C110.419 19.8688 109.881 19.8427 109.432 19.1744L108.524 17.8429C108.179 17.3417 108.284 16.83 108.837 16.3078C109.589 15.5873 110.56 15.0547 111.751 14.7101C112.941 14.3655 114.105 14.1932 115.244 14.1932C117.927 14.1932 119.922 14.731 121.227 15.8066C122.533 16.8717 123.185 18.1771 123.185 19.7226C123.185 20.8713 122.736 21.9208 121.838 22.8711C120.94 23.8109 119.99 24.4584 118.987 24.8134V24.8761C120.178 25.1685 121.306 25.8107 122.371 26.8028C123.436 27.7844 123.969 29.0062 123.969 30.4682C123.969 32.7552 123.248 34.5043 121.807 35.7157C120.366 36.927 118.168 37.5327 115.212 37.5327C113.97 37.5327 112.68 37.3447 111.343 36.9688C110.017 36.5824 108.968 36.0603 108.195 35.4024Z" fill="black"/>
<path fill-rule="evenodd" clip-rule="evenodd" d="M12.3221 31.3631C10.8682 19.4782 15.6734 12.298 21.3051 8.33172L21.036 8.5965C22.2463 7.45208 24.9395 6.16069 25.8465 5.87427C28.256 5.11265 30.6489 4.62565 33.1422 5.37025C38.0782 6.83116 41.1012 11.5716 37.9056 16.2519C36.9697 17.5939 35.7608 18.724 34.3579 19.5685C33.3661 20.188 31.4113 21.458 30.4675 22.1625L30.6073 22.0733C30.2402 22.3366 29.8062 22.5969 29.3092 22.895C28.0593 23.6446 26.4115 24.6329 24.4299 26.5074C21.0749 29.6974 18.1516 33.3109 15.7342 37.256L15.7828 37.1553C15.6808 37.3383 15.5307 37.4913 15.3476 37.5971C15.125 37.7257 14.8661 37.7772 14.6111 37.7437C14.3562 37.7101 14.1196 37.5935 13.9382 37.4118C13.7567 37.2301 13.6406 36.9936 13.6079 36.7391L13.6301 36.9212C12.991 35.1222 12.5523 33.2582 12.3221 31.3631ZM31.0063 13.2047C31.6877 12.6803 31.3521 11.5912 30.4937 11.5413L23.3676 11.1269C23.0242 11.107 22.6869 11.2239 22.4295 11.452L21.5078 12.2691C20.8878 12.8187 21.243 13.8434 22.07 13.8915L23.9326 13.9998C24.1052 14.0098 24.1717 14.2295 24.0336 14.3336L19.6804 17.6155C18.9901 18.1359 19.3227 19.2343 20.1857 19.2845L21.8376 19.3806C22.0012 19.3901 22.0732 19.5913 21.9529 19.7025L16.8634 24.4041C16.0195 25.1837 17.0639 26.4999 18.0149 25.8553L28.4642 18.7724C29.1991 18.2742 28.8833 17.1277 27.9969 17.0762L26.6148 16.9958C26.4431 16.9858 26.376 16.768 26.5123 16.6631L31.0063 13.2047Z" fill="url(#paint0_linear_37_303)"/>
<path d="M16.7678 8.59721C14.6257 11.4719 12.7476 14.2959 11.8131 17.8622C10.8836 21.6571 10.549 25.5725 10.8213 29.4689C10.8461 29.6656 10.7989 29.8647 10.6886 30.0297C10.5782 30.1946 10.412 30.3145 10.2205 30.3672C9.99632 30.4122 9.7635 30.3667 9.57302 30.2407C9.38255 30.1147 9.24995 29.9185 9.20429 29.695C8.44426 27.9442 7.87067 26.1186 7.49295 24.248C6.85256 20.2579 7.27679 15.625 8.70884 12.6554L8.68371 12.7597C10.0752 9.53769 12.1572 7.56639 15.185 7.08045C15.511 7.02806 15.84 6.99618 16.17 6.985L16.1211 6.99286C16.302 6.97559 16.4838 7.01463 16.6415 7.10461C16.7993 7.1946 16.9252 7.33111 17.002 7.49543C17.0788 7.65974 17.1028 7.84378 17.0706 8.02229C17.0384 8.20081 16.9516 8.36504 16.8221 8.49243" fill="url(#paint1_linear_37_303)"/>
<path d="M19.8444 37.3222C19.731 37.2338 19.587 37.1846 19.4372 37.1831C19.2873 37.1815 19.1408 37.2275 19.0228 37.3134C18.9242 37.3984 18.8571 37.5094 18.8311 37.6305C18.8051 37.7515 18.8216 37.8765 18.878 37.9876L18.8427 37.9526C18.8832 38.0649 18.9081 38.1816 18.9168 38.2999C19.0046 39.5275 17.3045 40.6655 15.1236 40.8215C12.9427 40.9775 11.1158 40.2869 11.0282 39.063C11.0214 38.8434 11.0457 38.6236 11.1005 38.409C11.1611 38.2354 11.2667 38.0772 11.4082 37.9482C11.4862 37.8246 11.5259 37.6843 11.5229 37.5424C11.4928 37.4611 11.4379 37.3895 11.3645 37.3362C11.2234 37.2614 11.0595 37.2296 10.8963 37.2453C10.733 37.261 10.5786 37.3235 10.4553 37.4238L10.5417 37.3688C8.70965 38.2125 7.76775 39.5063 7.85664 40.7488C8.00533 42.8272 11.2786 44.2844 15.1585 44.0069C19.0384 43.7293 22.0668 41.8212 21.9182 39.7429C21.8469 38.7466 21.0391 37.8405 19.6858 37.2285" fill="black"/>
<path fill-rule="evenodd" clip-rule="evenodd" d="M41.8511 21.891C41.5273 21.597 41.1178 21.4423 40.8239 21.7661C40.3733 22.2624 39.1261 23.3447 37.7271 23.8152C37.0968 24.0272 36.0903 23.9029 36.0157 24.5637C35.9964 24.7348 36.1506 25.0386 36.5852 25.0876C39.4724 25.4133 41.2584 23.722 41.9051 23.0096C42.1991 22.6858 42.1749 22.1849 41.8511 21.891Z" fill="url(#paint2_linear_37_303)"/>
<path fill-rule="evenodd" clip-rule="evenodd" d="M42.2099 17.722C40.453 21.4831 37.0384 22.7568 34.1441 22.4098C33.7098 22.3578 33.3446 22.1629 33.3967 21.7286C33.4487 21.2943 33.8726 21.222 34.3548 21.0687C36.6954 20.7493 38.5233 19.5059 40.0165 16.3092C40.2016 15.9129 41.2354 16.3778 41.6316 16.5629C42.0279 16.7481 42.395 17.3257 42.2099 17.722Z" fill="url(#paint3_linear_37_303)"/>
<defs>
<linearGradient id="paint0_linear_37_303" x1="23.8254" y1="5.74474" x2="27.551" y2="36.1979" gradientUnits="userSpaceOnUse">
<stop/>
<stop offset="1"/>
</linearGradient>
<linearGradient id="paint1_linear_37_303" x1="10.9624" y1="7.75816" x2="14.4813" y2="29.684" gradientUnits="userSpaceOnUse">
<stop/>
<stop offset="1"/>
</linearGradient>
<linearGradient id="paint2_linear_37_303" x1="45.6957" y1="24.7942" x2="34.0831" y2="20.571" gradientUnits="userSpaceOnUse">
<stop/>
<stop offset="1"/>
</linearGradient>
<linearGradient id="paint3_linear_37_303" x1="33.6095" y1="29.3368" x2="39.4614" y2="10.0161" gradientUnits="userSpaceOnUse">
<stop offset="0.1875"/>
<stop offset="1"/>
</linearGradient>
</defs>
</svg>
