<svg width="20" height="22" viewBox="0 0 20 22" fill="black" xmlns="http://www.w3.org/2000/svg">
<path fill-rule="evenodd" clip-rule="evenodd" d="M2.54427 21.9999L17.487 21.9753C18.2451 21.9753 18.9676 21.6293 19.4459 21.0343C19.9241 20.4403 20.1056 19.662 19.9401 18.9173V18.9156C18.9167 14.3862 14.858 11 10.0127 11C5.16987 11 1.11212 14.3838 0.0615728 18.904L0.0608156 18.9081C-0.107079 19.6638 0.0769045 20.4506 0.560166 21.0505C1.04284 21.6513 1.7729 22 2.54463 22L2.54427 21.9999ZM10.0532 0C7.20313 0 4.8896 2.30916 4.8896 5.1528C4.8896 7.99663 7.20304 10.3051 10.0532 10.3051C12.9033 10.3051 15.2173 7.99673 15.2173 5.1528C15.2173 2.30897 12.903 0 10.0532 0Z" fill="#B7B7B7"/>
</svg>
