<svg width="19" height="19" viewBox="0 0 19 19" fill="none" xmlns="http://www.w3.org/2000/svg">
	<path d="M17.2499 10.7916H10.7916V17.25C10.7916 17.9604 10.2103 18.5416 9.49992 18.5416C8.7895 18.5416 8.20825 17.9604 8.20825 17.25V10.7916H1.74992C1.0395 10.7916 0.458252 10.2104 0.458252 9.49998C0.458252 8.78956 1.0395 8.20831 1.74992 8.20831H8.20825V1.74998C8.20825 1.03956 8.7895 0.458313 9.49992 0.458313C10.2103 0.458313 10.7916 1.03956 10.7916 1.74998V8.20831H17.2499C17.9603 8.20831 18.5416 8.78956 18.5416 9.49998C18.5416 10.2104 17.9603 10.7916 17.2499 10.7916Z" fill="black" />
</svg>
