<svg width="18" height="18" viewBox="0 0 18 18" fill="none" xmlns="http://www.w3.org/2000/svg">
	<path d="M2.175 5.36255C2.3625 5.17505 2.5845 5.0813 2.841 5.0813C3.097 5.0813 3.31875 5.17505 3.50625 5.36255L9 10.8563L14.5125 5.3438C14.6875 5.1688 14.9062 5.0813 15.1687 5.0813C15.4312 5.0813 15.6562 5.17505 15.8437 5.36255C16.0312 5.55005 16.125 5.77205 16.125 6.02855C16.125 6.28455 16.0312 6.5063 15.8437 6.6938L9.525 12.9938C9.45 13.0688 9.36875 13.122 9.28125 13.1535C9.19375 13.1845 9.1 13.2 9 13.2C8.9 13.2 8.80625 13.1845 8.71875 13.1535C8.63125 13.122 8.55 13.0688 8.475 12.9938L2.15625 6.67505C1.98125 6.50005 1.89375 6.28455 1.89375 6.02855C1.89375 5.77205 1.9875 5.55005 2.175 5.36255Z" fill="black" />
</svg>
