<svg width="37" height="19" viewBox="0 0 37 19" fill="none" xmlns="http://www.w3.org/2000/svg">
<path d="M27.3834 10.6668H29.3195L28.4084 8.1001L27.3834 10.6668Z" fill="black"/>
<path d="M9.84443 10.0835H7.68054V11.8335H9.50276C9.95832 11.9502 10.4139 11.6002 10.5278 11.1335C10.6417 10.6668 10.3 10.2002 9.84443 10.0835Z" fill="black"/>
<path d="M10.1861 8.09987C10.1861 7.6332 9.84443 7.2832 9.27499 7.2832H7.68054V8.79987H9.27499C9.84443 8.91654 10.1861 8.56654 10.1861 8.09987Z" fill="black"/>
<path d="M35.6973 0.166504H1.53067C0.84734 0.166504 0.391785 0.633171 0.391785 1.33317V17.6665C0.391785 18.3665 0.84734 18.8332 1.53067 18.8332H6.08623C8.25001 18.8332 8.81945 18.8332 13.3751 18.8332H35.6973C36.3807 18.8332 36.8362 18.3665 36.8362 17.6665V1.33317C36.8362 0.633171 36.2668 0.166504 35.6973 0.166504ZM9.84456 13.1165H6.20012V6.1165H9.61679C10.6418 5.99984 11.5529 6.69984 11.6668 7.74984V7.8665C11.6668 8.5665 11.3251 9.14984 10.7557 9.38317C11.439 9.6165 12.0085 10.3165 12.0085 11.1332C11.8946 12.2998 10.9835 13.1165 9.84456 13.1165ZM18.3862 7.39984H14.6279V8.79984H18.0446V10.1998H14.6279V11.7165H18.3862V13.1165H13.1473V6.1165H18.3862V7.39984ZM22.714 13.1165H21.2335V7.5165H19.0696V6.1165H24.764V7.5165H22.714V13.1165ZM30.3446 13.1165L29.889 11.9498H26.814L26.3585 13.1165H24.764L27.4973 6.1165H29.0918L31.939 13.1165H30.3446Z" fill="black"/>
</svg>
