<svg width="29" height="29" viewBox="0 0 29 29" fill="none" xmlns="http://www.w3.org/2000/svg">
	<path d="M18.0133 14.5L27.8473 4.66602C28.314 4.20013 28.5766 3.56791 28.5771 2.90845C28.5777 2.24899 28.3163 1.61632 27.8504 1.1496C27.3845 0.682878 26.7523 0.420351 26.0928 0.419768C25.4334 0.419186 24.8007 0.680596 24.334 1.14649L14.5 10.9805L4.66602 1.14649C4.1993 0.679772 3.56629 0.417572 2.90625 0.417572C2.24621 0.417572 1.6132 0.679772 1.14648 1.14649C0.679766 1.61321 0.417565 2.24622 0.417565 2.90626C0.417565 3.5663 0.679766 4.1993 1.14648 4.66602L10.9805 14.5L1.14648 24.334C0.679766 24.8007 0.417565 25.4337 0.417565 26.0938C0.417565 26.7538 0.679766 27.3868 1.14648 27.8535C1.6132 28.3202 2.24621 28.5824 2.90625 28.5824C3.56629 28.5824 4.1993 28.3202 4.66602 27.8535L14.5 18.0195L24.334 27.8535C24.8007 28.3202 25.4337 28.5824 26.0937 28.5824C26.7538 28.5824 27.3868 28.3202 27.8535 27.8535C28.3202 27.3868 28.5824 26.7538 28.5824 26.0938C28.5824 25.4337 28.3202 24.8007 27.8535 24.334L18.0133 14.5Z" fill="black" />
</svg>
