<svg width="18" height="19" viewBox="0 0 18 19" fill="none" xmlns="http://www.w3.org/2000/svg">
<path d="M9.00003 1.94641C10.6624 1.94641 12.2566 2.60677 13.4321 3.78222C14.6075 4.95768 15.2679 6.55193 15.2679 8.21427C15.2679 10.8628 13.4068 13.7493 9.73289 16.9044C9.52861 17.0799 9.26814 17.1763 8.99883 17.176C8.72952 17.1758 8.46923 17.079 8.26525 16.9031L8.02225 16.6923C4.51096 13.6194 2.73218 10.8037 2.73218 8.21427C2.73218 6.55193 3.39254 4.95768 4.56799 3.78222C5.74344 2.60677 7.3377 1.94641 9.00003 1.94641ZM9.00003 5.80355C8.36067 5.80355 7.7475 6.05754 7.2954 6.50964C6.84331 6.96173 6.58932 7.57491 6.58932 8.21427C6.58932 8.85363 6.84331 9.4668 7.2954 9.9189C7.7475 10.371 8.36067 10.625 9.00003 10.625C9.6394 10.625 10.2526 10.371 10.7047 9.9189C11.1568 9.4668 11.4107 8.85363 11.4107 8.21427C11.4107 7.57491 11.1568 6.96173 10.7047 6.50964C10.2526 6.05754 9.6394 5.80355 9.00003 5.80355Z" fill="black"/>
</svg>
