<svg width="30" height="30" viewBox="0 0 30 30" fill="none" xmlns="http://www.w3.org/2000/svg">
	<path d="M12.2894 11.7365C12.2894 13.7205 9.57608 15.3286 7.59204 15.3286C6.30867 15.3286 5.12295 14.6439 4.48126 13.5325C3.83958 12.421 3.83958 11.0518 4.48126 9.94037C5.12295 8.82892 6.30867 8.14429 7.59204 8.14429C9.57608 8.14429 12.2894 9.75235 12.2894 11.7364V11.7365Z" fill="black" />
	<path d="M25.0001 11.7371C25.0001 12.6899 24.6217 13.6035 23.9479 14.277C23.2744 14.9508 22.3608 15.3292 21.408 15.3292C19.424 15.3292 16.7106 13.7212 16.7106 11.7371C16.7106 9.75308 19.424 8.14502 21.408 8.14502C22.3608 8.14502 23.2744 8.52347 23.9479 9.19723C24.6217 9.87075 25.0001 10.7843 25.0001 11.7371Z" fill="black" />
	<path d="M18.3684 11.7366C18.3684 13.8731 16.6365 15.605 14.5 15.605C12.3635 15.605 10.6316 13.8731 10.6316 11.7366C10.6316 9.60008 12.3635 7.86816 14.5 7.86816C16.6365 7.86816 18.3684 9.60008 18.3684 11.7366Z" fill="black" />
	<path d="M6.21053 7.86816H22.7895C23.3757 7.86816 23.9379 8.10106 24.3526 8.51553C24.7671 8.93025 25 9.49252 25 10.0787V11.7366H4V10.0787C4 9.49251 4.23289 8.93023 4.64737 8.51553C5.06209 8.10106 5.62436 7.86816 6.21053 7.86816Z" fill="black" />
	<path d="M21.1315 4H7.86836C7.28218 4 6.7199 4.23289 6.30521 4.64737C5.89073 5.06209 5.65784 5.62436 5.65784 6.21053H23.342C23.342 5.62435 23.1092 5.06206 22.6947 4.64737C22.28 4.23289 21.7177 4 21.1315 4Z" fill="black" />
	<path d="M22.7895 7.86816H6.21053C5.62435 7.86816 5.06206 8.10106 4.64737 8.51553C4.23289 8.93025 4 9.49252 4 10.0787V11.7366C4 12.6894 4.37845 13.603 5.05221 14.2765C5.72573 14.9502 6.63931 15.3287 7.59211 15.3287C8.94949 15.2719 10.2433 14.7376 11.2449 13.82C11.9567 14.928 13.1831 15.5981 14.5 15.5981C15.8169 15.5981 17.0434 14.928 17.7551 13.82C18.7567 14.7375 20.0505 15.2719 21.4079 15.3287C22.3607 15.3287 23.2743 14.9502 23.9478 14.2765C24.6216 13.603 25 12.6894 25 11.7366V10.0787C25 9.49251 24.7671 8.93023 24.3526 8.51553C23.9379 8.10106 23.3756 7.86816 22.7895 7.86816Z" fill="black" />
	<path d="M17.987 16.0254C17.0016 16.8269 15.7702 17.2646 14.4999 17.2646C13.2296 17.2646 11.9983 16.8269 11.0129 16.0254C9.97108 16.6274 8.79476 16.958 7.59205 16.9871C6.92965 16.9866 6.27363 16.8608 5.65784 16.6168V22.7897C5.65784 23.3759 5.89073 23.9382 6.30521 24.3529C6.71993 24.7673 7.28219 25.0002 7.86836 25.0002H21.1315C21.7177 25.0002 22.28 24.7673 22.6947 24.3529C23.1092 23.9381 23.342 23.3759 23.342 22.7897V16.6168C22.7263 16.8608 22.0702 16.9866 21.4078 16.9871C20.2051 16.958 19.0288 16.6274 17.987 16.0254ZM12.2894 21.6845C12.2894 22.0794 12.0787 22.4443 11.7368 22.6417C11.3948 22.8391 10.9735 22.8391 10.6315 22.6417C10.2896 22.4443 10.0789 22.0794 10.0789 21.6845V20.0266C10.0789 19.6316 10.2896 19.2667 10.6315 19.0693C10.9735 18.872 11.3948 18.872 11.7368 19.0693C12.0787 19.2667 12.2894 19.6316 12.2894 20.0266V21.6845ZM18.921 21.6845C18.921 22.0794 18.7103 22.4443 18.3684 22.6417C18.0264 22.8391 17.605 22.8391 17.2631 22.6417C16.9212 22.4443 16.7105 22.0794 16.7105 21.6845V20.0266C16.7105 19.6316 16.9212 19.2667 17.2631 19.0693C17.605 18.872 18.0264 18.872 18.3684 19.0693C18.7103 19.2667 18.921 19.6316 18.921 20.0266V21.6845Z" fill="black" />
</svg>
