<svg width="18" height="19" viewBox="0 0 18 19" fill="none" xmlns="http://www.w3.org/2000/svg">
<path d="M12.9772 7.64303L15.3637 10.0295C15.751 10.4116 16.0588 10.8666 16.2696 11.3681C16.4803 11.8697 16.5897 12.408 16.5915 12.952C16.5933 13.496 16.4875 14.035 16.2802 14.538C16.0728 15.041 15.768 15.4979 15.3833 15.8826C14.9987 16.2673 14.5417 16.5721 14.0387 16.7795C13.5358 16.9868 12.9967 17.0926 12.4527 17.0908C11.9087 17.089 11.3704 16.9796 10.8688 16.7688C10.3673 16.5581 9.91234 16.2503 9.53024 15.863L8.73524 15.068C8.62774 14.9643 8.54198 14.8402 8.48296 14.703C8.42393 14.5657 8.39283 14.4181 8.39146 14.2688C8.39009 14.1194 8.41849 13.9712 8.47499 13.833C8.53149 13.6947 8.61497 13.569 8.72055 13.4633C8.82612 13.3577 8.95169 13.2741 9.08992 13.2174C9.22815 13.1608 9.37628 13.1323 9.52566 13.1335C9.67503 13.1347 9.82267 13.1657 9.95995 13.2246C10.0972 13.2835 10.2214 13.3691 10.3252 13.4765L11.1217 14.2723C11.4739 14.6213 11.9501 14.8166 12.4459 14.8155C12.9418 14.8143 13.417 14.6168 13.7676 14.2661C14.1181 13.9154 14.3155 13.4402 14.3166 12.9443C14.3176 12.4485 14.1221 11.9724 13.773 11.6203L11.3865 9.23378C11.1285 8.97572 10.8009 8.79853 10.4437 8.72392C10.0866 8.64932 9.71542 8.68055 9.37574 8.81378C9.25424 8.86178 9.14174 8.91128 9.03524 8.96078L8.68724 9.12353C8.22224 9.33353 7.86449 9.42353 7.40924 8.96903C6.75524 8.31503 6.92474 7.71128 7.72199 7.16153C8.51627 6.61533 9.47671 6.36444 10.4366 6.45239C11.3966 6.54034 12.2954 6.96159 12.9772 7.64303ZM8.46974 3.13553L9.26474 3.93053C9.46977 4.14261 9.5833 4.42673 9.58088 4.7217C9.57845 5.01668 9.46027 5.2989 9.25179 5.50758C9.0433 5.71627 8.76119 5.83471 8.46622 5.83742C8.17125 5.84012 7.88701 5.72686 7.67474 5.52203L6.87899 4.72703C6.70608 4.5479 6.49922 4.405 6.27049 4.30667C6.04176 4.20833 5.79574 4.15654 5.54678 4.15431C5.29782 4.15207 5.05091 4.19944 4.82045 4.29366C4.58999 4.38787 4.38061 4.52703 4.20451 4.70303C4.02841 4.87903 3.88913 5.08834 3.79479 5.31874C3.70044 5.54915 3.65293 5.79603 3.65503 6.04499C3.65712 6.29395 3.70877 6.54001 3.80697 6.76879C3.90518 6.99758 4.04796 7.20451 4.22699 7.37753L6.61349 9.76403C6.87144 10.0221 7.19907 10.1993 7.55623 10.2739C7.9134 10.3485 8.28456 10.3173 8.62424 10.184C8.74574 10.136 8.85824 10.0865 8.96474 10.037L9.31274 9.87428C9.77774 9.66428 10.1362 9.57428 10.5907 10.0288C11.2447 10.6828 11.0752 11.2865 10.278 11.8363C9.48371 12.3825 8.52327 12.6334 7.56333 12.5454C6.6034 12.4575 5.70454 12.0362 5.02274 11.3548L2.63624 8.96828C2.24899 8.58618 1.94114 8.13125 1.73042 7.62968C1.51971 7.12812 1.41029 6.58983 1.40847 6.0458C1.40665 5.50178 1.51246 4.96276 1.71981 4.4598C1.92715 3.95683 2.23195 3.49985 2.61663 3.11517C3.00132 2.73048 3.4583 2.42569 3.96126 2.21834C4.46423 2.01099 5.00324 1.90518 5.54727 1.90701C6.09129 1.90883 6.62958 2.01825 7.13115 2.22896C7.63271 2.43967 8.08764 2.74752 8.46974 3.13478V3.13553Z" fill="#1A1B1C"/>
</svg>
