<svg width="30" height="30" viewBox="0 0 30 30" fill="none" xmlns="http://www.w3.org/2000/svg">
	<path fill-rule="evenodd" clip-rule="evenodd" d="M7.54427 25.9999L22.487 25.9753C23.2451 25.9753 23.9676 25.6293 24.4459 25.0343C24.9241 24.4403 25.1056 23.662 24.9401 22.9173V22.9156C23.9167 18.3862 19.858 15 15.0127 15C10.1699 15 6.11212 18.3838 5.06157 22.904L5.06082 22.9081C4.89292 23.6638 5.0769 24.4506 5.56017 25.0505C6.04284 25.6513 6.7729 26 7.54463 26L7.54427 25.9999ZM15.0532 4C12.2031 4 9.8896 6.30916 9.8896 9.1528C9.8896 11.9966 12.203 14.3051 15.0532 14.3051C17.9033 14.3051 20.2173 11.9967 20.2173 9.1528C20.2173 6.30897 17.903 4 15.0532 4Z" fill="#000" />
</svg>
