<svg width="143" height="213" viewBox="0 0 143 213" fill="none" xmlns="http://www.w3.org/2000/svg">
<g clip-path="url(#clip0_105_8)">
<path d="M94.3621 132.537C104.353 132.499 116.885 142.151 125.831 158.01C134.778 173.869 137.557 191.336 133.763 202.347L135.229 204.951L128.413 210.413C118.151 218.634 100.351 208.511 88.6633 187.797C76.9757 167.083 75.8155 143.621 86.0704 135.412L92.8857 129.951L94.3621 132.537Z" fill="url(#paint0_linear_105_8)"/>
<path d="M95.4812 182.339C83.7907 161.625 82.6351 138.165 92.8993 129.939C103.164 121.714 120.962 131.839 132.652 152.553C144.342 173.268 145.498 196.728 135.234 204.954C124.969 213.178 107.171 203.054 95.4812 182.339Z" fill="#D2FF2D"/>
<path d="M101.493 177.517C92.2762 161.185 90.7247 143.201 98.0282 137.349C105.331 131.496 118.724 139.992 127.941 156.324C137.158 172.656 138.709 190.64 131.406 196.493C124.103 202.345 110.711 193.849 101.493 177.517Z" stroke="black" stroke-width="0.831929" stroke-miterlimit="10"/>
<path fill-rule="evenodd" clip-rule="evenodd" d="M122.15 171.068C118.742 158.334 113.908 152.14 109.786 149.503L110.009 149.707C109.021 148.837 107.259 148.205 106.718 148.146C105.278 147.99 103.941 148.115 102.982 149.546C101.08 152.366 101.247 158.089 104.428 162.11C105.35 163.258 106.332 164.113 107.309 164.621C108.008 165.003 109.402 165.808 110.107 166.291L110.007 166.235C110.278 166.412 110.58 166.568 110.926 166.747C111.795 167.196 112.942 167.789 114.559 169.215C117.302 171.645 119.98 174.629 122.527 178.092L122.469 178C122.582 178.163 122.708 178.283 122.834 178.344C122.987 178.419 123.132 178.404 123.244 178.302C123.357 178.2 123.432 178.017 123.458 177.78C123.483 177.543 123.458 177.267 123.386 176.994L123.438 177.189C123.127 175.151 122.695 173.098 122.15 171.068ZM106.715 157.107C106.068 156.647 106.197 155.41 106.946 154.892L109.173 153.349C109.68 152.998 110.26 152.994 110.678 153.34L111.083 153.674C111.679 154.167 111.527 155.352 110.803 155.853L110.574 156.012C110.423 156.116 110.398 156.365 110.529 156.456L113.818 158.738C114.473 159.192 114.347 160.437 113.594 160.959L113.464 161.049C113.32 161.149 113.289 161.384 113.406 161.484L113.769 161.791C114.635 162.524 113.629 164.339 112.666 163.782L109.929 162.2C109.229 161.795 109.325 160.51 110.095 159.977C110.242 159.874 110.268 159.631 110.14 159.54L106.715 157.107Z" fill="black"/>
<path d="M112.092 148.584C114.134 151.007 116.029 153.446 117.721 156.906C119.489 160.604 121.009 164.585 122.227 168.706C122.283 168.917 122.375 169.111 122.486 169.254C122.597 169.396 122.719 169.477 122.831 169.481C122.956 169.469 123.054 169.36 123.103 169.179C123.153 168.998 123.149 168.759 123.094 168.515C122.858 166.495 122.506 164.446 122.042 162.403C120.972 158.088 119.159 153.385 117.431 150.677L117.48 150.778C115.684 147.797 113.985 146.297 112.339 146.591C112.162 146.622 111.99 146.676 111.825 146.751L111.852 146.747C111.757 146.776 111.682 146.865 111.636 147C111.591 147.135 111.577 147.31 111.596 147.501C111.615 147.692 111.667 147.89 111.745 148.067C111.823 148.244 111.922 148.391 112.029 148.49" fill="black"/>
<path d="M120.544 179.244C120.569 179.123 120.622 179.034 120.694 178.993C120.767 178.951 120.855 178.961 120.942 179.019C121.019 179.081 121.091 179.179 121.145 179.298C121.2 179.417 121.235 179.551 121.246 179.681L121.251 179.636C121.27 179.763 121.299 179.891 121.335 180.016C121.718 181.315 122.942 182.049 124.06 181.636C125.179 181.223 125.831 180.024 125.45 178.729C125.377 178.499 125.289 178.277 125.188 178.069C125.098 177.904 124.992 177.768 124.878 177.671C124.797 177.563 124.729 177.428 124.681 177.279C124.668 177.187 124.67 177.098 124.687 177.023C124.73 176.908 124.799 176.832 124.884 176.805C124.969 176.779 125.066 176.803 125.161 176.875L125.1 176.84C126.287 177.234 127.195 178.33 127.582 179.645C128.229 181.844 127.137 184.221 125.147 184.956C123.157 185.69 121.018 184.506 120.371 182.307C120.06 181.253 120.14 180.098 120.589 179.105" fill="black"/>
<path fill-rule="evenodd" clip-rule="evenodd" d="M104.457 169.011C104.513 168.62 104.659 168.351 104.915 168.61C105.306 169.006 106.286 169.799 107.131 169.922C107.513 169.978 107.963 169.577 108.231 170.25V170.25C108.299 170.422 108.33 170.779 108.134 170.944C106.838 172.044 105.38 170.757 104.818 170.187C104.562 169.928 104.401 169.402 104.457 169.011Z" fill="black"/>
<path fill-rule="evenodd" clip-rule="evenodd" d="M102.837 164.773C104.998 168.218 107.105 168.641 108.398 167.518C108.592 167.349 108.702 167.05 108.526 166.613C108.35 166.175 108.119 166.212 107.83 166.18C106.577 166.465 105.254 165.654 103.418 162.726C103.19 162.363 102.847 163.119 102.717 163.416C102.588 163.713 102.609 164.41 102.837 164.773Z" fill="black"/>
<path d="M71.1352 8.80378C55.3995 10.0456 36.9285 26.8756 24.9103 53.0102C12.892 79.1448 10.7926 107.007 18.2017 123.849L16.2334 128.14L27.6754 135.851C44.905 147.456 71.6097 129.199 87.3108 95.0629C103.012 60.9266 101.78 23.8357 84.5645 12.2495L73.1224 4.53931L71.1352 8.80378Z" fill="url(#paint1_linear_105_8)"/>
<path d="M75.8652 87.3589C91.5706 53.2216 90.3318 16.135 73.0995 4.52299C55.8666 -7.08871 29.165 11.1716 13.4599 45.3088C-2.24517 79.446 -1.00673 116.533 16.2262 128.145C33.4587 139.756 60.1601 121.496 75.8652 87.3589Z" fill="#D2FF2D"/>
<path d="M65.7709 80.5502C78.1536 53.6349 78.252 25.1181 65.9903 16.8564C53.7292 8.59434 33.7513 23.7157 21.3687 50.6311C8.98606 77.5463 8.88781 106.063 21.1491 114.325C33.4104 122.587 53.3882 107.465 65.7709 80.5502Z" stroke="black" stroke-miterlimit="10"/>
<path fill-rule="evenodd" clip-rule="evenodd" d="M32.4074 73.0899C36.1144 52.597 42.9164 42.2141 49.0638 37.5249L48.7392 37.8755C50.1801 36.3768 52.8717 35.1522 53.7172 34.9894C55.9638 34.5558 58.0844 34.578 59.7805 36.7062C63.1437 40.8972 63.6263 49.9297 59.1416 56.6754C57.84 58.6027 56.4061 60.0779 54.9336 61.0046C53.8833 61.6976 51.7933 63.1457 50.7468 63.9985L50.8956 63.8977C50.4929 64.2114 50.0377 64.4965 49.5166 64.8229C48.2058 65.644 46.4777 66.7265 44.1182 69.1816C40.1168 73.3657 36.2882 78.4134 32.7297 84.1967L32.8101 84.0444C32.6531 84.3163 32.4699 84.5209 32.2795 84.6343C32.0481 84.7722 31.8191 84.7678 31.6282 84.6219C31.4373 84.4759 31.2952 84.1966 31.2241 83.8273C31.1529 83.4581 31.1567 83.0196 31.2348 82.5803L31.178 82.8943C31.4027 79.645 31.815 76.357 32.4074 73.0899ZM55.409 48.6591C56.1382 48.0446 55.8608 46.5754 54.9122 46.0283L50.2007 43.311C49.5591 42.941 48.8633 42.9942 48.3976 43.449L47.107 44.7093C46.4417 45.359 46.741 46.7624 47.6577 47.2911L48.8079 47.9544C48.9986 48.0644 49.0534 48.3602 48.9056 48.482L43.3896 53.0263C42.6507 53.635 42.9247 55.1141 43.8781 55.664L44.9028 56.255C45.0851 56.3601 45.1456 56.6387 45.0146 56.7697L40.963 60.819C39.9986 61.7829 41.3838 63.858 42.4825 63.0953L51.06 57.1403C51.87 56.578 51.6241 55.0252 50.6349 54.4547L49.8157 53.9822C49.626 53.8728 49.5705 53.579 49.7163 53.4561L55.409 48.6591Z" fill="black"/>
<path d="M45.3126 36.3795C42.4141 40.4598 39.7483 44.5476 37.5356 50.2151C35.2331 56.2688 33.3588 62.734 31.9794 69.3806C31.9186 69.7201 31.7991 70.0382 31.6429 70.2768C31.4866 70.5154 31.3041 70.6584 31.1287 70.6797C30.9303 70.6766 30.762 70.5184 30.6608 70.2396C30.5596 69.9608 30.5336 69.5842 30.5886 69.1924C30.6965 65.9818 30.9848 62.7108 31.4487 59.433C32.571 52.4995 34.8116 44.8594 37.179 40.3701L37.116 40.5365C39.5545 35.6086 42.0342 33.026 44.664 33.2731C44.9472 33.2996 45.2244 33.3617 45.4939 33.4589L45.4513 33.4549C45.6037 33.4894 45.7336 33.619 45.8233 33.8257C45.913 34.0324 45.9581 34.3062 45.9524 34.6094C45.9467 34.9127 45.8904 35.2305 45.7914 35.5194C45.6923 35.8082 45.5553 36.0538 45.3992 36.2225" fill="black"/>
<path d="M36.0025 85.7532C35.9477 85.5648 35.8523 85.4315 35.7326 85.3762C35.613 85.3208 35.4765 85.3468 35.3465 85.4497C35.2325 85.558 35.1332 85.7209 35.0626 85.9154C34.9921 86.1098 34.954 86.3257 34.9538 86.5323L34.9398 86.4611C34.9263 86.6641 34.8984 86.869 34.8569 87.071C34.4239 89.1658 32.5924 90.4815 30.7778 89.9773C28.9631 89.4731 27.7798 87.6699 28.2114 85.5814C28.296 85.2099 28.4057 84.8488 28.5376 84.5073C28.6575 84.2367 28.8072 84.0079 28.9737 83.8407C29.087 83.6603 29.1764 83.4383 29.2321 83.1988C29.2413 83.0514 29.2266 82.9118 29.1895 82.7964C29.107 82.6211 28.9885 82.51 28.8509 82.479C28.7134 82.4481 28.5639 82.4988 28.4238 82.6241L28.5157 82.5621C26.699 83.3366 25.4123 85.1807 24.9741 87.301C24.2411 90.8476 26.2711 94.4481 29.4995 95.3451C32.7278 96.2421 35.9414 94.0984 36.6744 90.5519C37.0258 88.8518 36.7489 87.0445 35.9136 85.5399" fill="black"/>
<path fill-rule="evenodd" clip-rule="evenodd" d="M59.9967 67.5439C59.8573 66.9358 59.5921 66.5318 59.2233 66.9729C58.6593 67.6475 57.2193 69.0243 55.9057 69.3277C55.3109 69.465 54.55 68.8925 54.2163 69.9867V69.9867C54.1306 70.2675 54.1298 70.8324 54.4585 71.0676C56.6427 72.6299 58.77 70.414 59.5813 69.4436C59.9501 69.0025 60.1361 68.152 59.9967 67.5439Z" fill="black"/>
<path fill-rule="evenodd" clip-rule="evenodd" d="M61.9944 60.6604C59.0416 66.3663 55.7782 67.3078 53.5971 65.7072C53.2699 65.467 53.0566 65.011 53.2765 64.2991C53.4964 63.5873 53.8664 63.6147 54.3163 63.5265C56.3262 63.812 58.3035 62.3639 60.8131 57.5143C61.1242 56.9131 61.7634 58.0581 62.0056 58.5085C62.2478 58.959 62.3055 60.0593 61.9944 60.6604Z" fill="black"/>
</g>
<defs>
<linearGradient id="paint0_linear_105_8" x1="120.862" y1="141.097" x2="113.795" y2="235.458" gradientUnits="userSpaceOnUse">
<stop stop-color="#030303"/>
<stop offset="0.412804" stop-color="#D2FF2D"/>
<stop offset="0.989583"/>
</linearGradient>
<linearGradient id="paint1_linear_105_8" x1="30.5295" y1="25.7346" x2="53.9555" y2="173.377" gradientUnits="userSpaceOnUse">
<stop stop-color="#030303"/>
<stop offset="0.412804" stop-color="#D2FF2D"/>
<stop offset="0.989583"/>
</linearGradient>
<clipPath id="clip0_105_8">
<rect width="143" height="213" fill="white"/>
</clipPath>
</defs>
</svg>
