<svg width="97" height="139" viewBox="0 0 97 139" fill="none" xmlns="http://www.w3.org/2000/svg">
<g clip-path="url(#clip0_156_4)">
<path d="M69.1352 7.80378C53.3995 9.04561 34.9285 25.8756 22.9103 52.0102C10.892 78.1448 8.79261 106.007 16.2017 122.849L14.2334 127.14L25.6754 134.851C42.905 146.456 69.6097 128.199 85.3108 94.0629C101.012 59.9266 99.78 22.8357 82.5645 11.2495L71.1224 3.53932L69.1352 7.80378Z" fill="url(#paint0_linear_156_4)"/>
<path d="M73.8652 86.3589C89.5706 52.2216 88.3318 15.135 71.0995 3.523C53.8666 -8.0887 27.165 10.1716 11.4599 44.3088C-4.24517 78.446 -3.00673 115.533 14.2262 127.145C31.4587 138.756 58.1601 120.496 73.8652 86.3589Z" fill="#D2FF2D"/>
<path d="M63.7709 79.5502C76.1536 52.6349 76.252 24.1181 63.9903 15.8564C51.7292 7.59434 31.7513 22.7157 19.3687 49.6311C6.98606 76.5463 6.88781 105.063 19.1491 113.325C31.4104 121.587 51.3882 106.465 63.7709 79.5502Z" stroke="black" stroke-miterlimit="10"/>
<path fill-rule="evenodd" clip-rule="evenodd" d="M30.4074 72.0899C34.1144 51.597 40.9164 41.2141 47.0638 36.5249L46.7392 36.8755C48.1801 35.3768 50.8717 34.1522 51.7172 33.9894C53.9638 33.5558 56.0844 33.578 57.7805 35.7062C61.1437 39.8972 61.6263 48.9297 57.1416 55.6754C55.84 57.6027 54.4061 59.0779 52.9336 60.0046C51.8833 60.6976 49.7933 62.1457 48.7468 62.9985L48.8956 62.8977C48.4929 63.2114 48.0377 63.4965 47.5166 63.8229C46.2058 64.644 44.4777 65.7265 42.1182 68.1816C38.1168 72.3657 34.2882 77.4134 30.7297 83.1967L30.8101 83.0444C30.6531 83.3163 30.4698 83.5209 30.2795 83.6343C30.0481 83.7722 29.8191 83.7678 29.6282 83.6219C29.4373 83.4759 29.2952 83.1966 29.2241 82.8273C29.1529 82.4581 29.1567 82.0196 29.2348 81.5803L29.178 81.8943C29.4027 78.645 29.815 75.357 30.4074 72.0899ZM53.409 47.6591C54.1382 47.0446 53.8608 45.5754 52.9122 45.0283L48.2007 42.311C47.5591 41.941 46.8633 41.9942 46.3976 42.449L45.107 43.7093C44.4417 44.359 44.741 45.7624 45.6577 46.2911L46.8079 46.9544C46.9986 47.0644 47.0534 47.3602 46.9056 47.482L41.3896 52.0263C40.6507 52.635 40.9247 54.1141 41.8781 54.664L42.9028 55.255C43.0851 55.3601 43.1456 55.6387 43.0146 55.7697L38.963 59.819C37.9986 60.7829 39.3838 62.858 40.4825 62.0953L49.06 56.1403C49.87 55.578 49.6241 54.0252 48.6349 53.4547L47.8157 52.9822C47.626 52.8728 47.5705 52.579 47.7163 52.4561L53.409 47.6591Z" fill="black"/>
<path d="M43.3126 35.3795C40.4141 39.4598 37.7483 43.5476 35.5356 49.2151C33.2331 55.2688 31.3588 61.734 29.9794 68.3806C29.9186 68.7201 29.7991 69.0382 29.6429 69.2768C29.4866 69.5154 29.3041 69.6584 29.1287 69.6797C28.9303 69.6766 28.762 69.5184 28.6608 69.2396C28.5596 68.9608 28.5336 68.5842 28.5886 68.1924C28.6965 64.9818 28.9848 61.7108 29.4487 58.433C30.571 51.4995 32.8116 43.8594 35.179 39.3701L35.116 39.5365C37.5545 34.6086 40.0342 32.026 42.664 32.2731C42.9472 32.2996 43.2244 32.3617 43.4939 32.4589L43.4513 32.4549C43.6037 32.4894 43.7336 32.619 43.8233 32.8257C43.913 33.0324 43.9581 33.3062 43.9524 33.6094C43.9467 33.9127 43.8904 34.2305 43.7914 34.5194C43.6923 34.8082 43.5553 35.0538 43.3992 35.2225" fill="black"/>
<path d="M34.0025 84.7532C33.9477 84.5648 33.8523 84.4315 33.7326 84.3762C33.613 84.3208 33.4765 84.3468 33.3465 84.4497C33.2325 84.558 33.1332 84.7209 33.0626 84.9154C32.9921 85.1098 32.954 85.3257 32.9538 85.5323L32.9398 85.4611C32.9263 85.6641 32.8984 85.869 32.8569 86.071C32.4239 88.1658 30.5924 89.4815 28.7778 88.9773C26.9631 88.4731 25.7798 86.6699 26.2114 84.5814C26.296 84.2099 26.4057 83.8488 26.5376 83.5073C26.6575 83.2367 26.8072 83.0079 26.9737 82.8407C27.087 82.6603 27.1764 82.4383 27.2321 82.1988C27.2413 82.0514 27.2266 81.9118 27.1895 81.7964C27.107 81.6211 26.9885 81.51 26.8509 81.479C26.7134 81.4481 26.5639 81.4988 26.4238 81.6241L26.5157 81.5621C24.699 82.3366 23.4123 84.1807 22.9741 86.301C22.2411 89.8476 24.2711 93.4481 27.4995 94.3451C30.7278 95.2421 33.9414 93.0984 34.6744 89.5519C35.0258 87.8518 34.7489 86.0445 33.9136 84.5399" fill="black"/>
<path fill-rule="evenodd" clip-rule="evenodd" d="M57.9967 66.5439C57.8573 65.9358 57.5921 65.5318 57.2233 65.9729C56.6593 66.6475 55.2193 68.0243 53.9057 68.3277C53.3109 68.465 52.55 67.8925 52.2163 68.9867V68.9867C52.1306 69.2675 52.1298 69.8324 52.4585 70.0676C54.6427 71.6299 56.77 69.414 57.5813 68.4436C57.9501 68.0025 58.1361 67.152 57.9967 66.5439Z" fill="black"/>
<path fill-rule="evenodd" clip-rule="evenodd" d="M59.9944 59.6604C57.0416 65.3663 53.7782 66.3078 51.5971 64.7072C51.2699 64.467 51.0566 64.011 51.2765 63.2991C51.4964 62.5873 51.8664 62.6147 52.3163 62.5265C54.3262 62.812 56.3035 61.3639 58.8131 56.5143C59.1242 55.9131 59.7634 57.0581 60.0056 57.5085C60.2478 57.959 60.3055 59.0593 59.9944 59.6604Z" fill="black"/>
</g>
<defs>
<linearGradient id="paint0_linear_156_4" x1="28.5295" y1="24.7346" x2="51.9555" y2="172.377" gradientUnits="userSpaceOnUse">
<stop stop-color="#030303"/>
<stop offset="0.412804" stop-color="#D2FF2D"/>
<stop offset="0.989583"/>
</linearGradient>
<clipPath id="clip0_156_4">
<rect width="97" height="139" fill="white"/>
</clipPath>
</defs>
</svg>
