<svg width="96" height="131" viewBox="0 0 96 131" fill="none" xmlns="http://www.w3.org/2000/svg">
<g clip-path="url(#clip0_106_10)">
<path d="M72.7814 8.5467C57.5857 8.48816 38.5275 23.1678 24.9211 47.287C11.3146 71.4063 7.0871 97.9712 12.8577 114.718L10.6284 118.679L20.9935 126.985C36.6019 139.488 63.673 124.094 81.4485 92.5898C99.2238 61.0862 100.988 25.4028 85.392 12.9193L75.0268 4.61318L72.7814 8.5467Z" fill="url(#paint0_linear_106_10)"/>
<path d="M71.0794 84.2892C88.8591 52.785 90.6166 17.1052 75.0061 4.59566C59.3949 -7.91367 32.3266 7.48453 14.5472 38.9886C-3.23215 70.4928 -4.98999 106.173 10.6211 118.683C26.2318 131.192 53.3 115.793 71.0794 84.2892Z" fill="#D2FF2D"/>
<path d="M61.9357 76.9551C75.9539 52.1158 78.3135 24.7642 67.2057 15.8638C56.0986 6.9631 35.7303 19.8838 21.7123 44.7232C7.69418 69.5624 5.33468 96.914 16.4421 105.815C27.5494 114.715 47.9176 101.794 61.9357 76.9551Z" stroke="black" stroke-miterlimit="10"/>
<path fill-rule="evenodd" clip-rule="evenodd" d="M30.5189 67.1473C35.7033 47.7806 43.054 38.3594 49.3244 34.3489L48.9852 34.6595C50.4866 33.336 53.1662 32.3749 53.9904 32.2859C56.1802 32.0483 58.213 32.2381 59.6712 34.4146C62.565 38.7027 62.3105 47.4069 57.472 53.5227C56.0701 55.2683 54.5772 56.5697 53.0909 57.3419C52.0282 57.9233 49.9079 59.1466 48.8361 59.8817L48.9869 59.7968C48.5757 60.0657 48.1163 60.3031 47.5904 60.5749C46.2676 61.2585 44.5236 62.1598 42.0649 64.3278C37.8935 68.0243 33.8193 72.563 29.9459 77.8289L30.0351 77.6892C29.8629 77.9376 29.6708 78.1193 29.4791 78.213C29.2462 78.3269 29.0268 78.3045 28.8553 78.1493C28.6837 77.9942 28.5696 77.7149 28.5307 77.3549C28.4918 76.995 28.5302 76.5747 28.64 76.1593L28.5606 76.4561C29.0343 73.3565 29.691 70.2348 30.5189 67.1473ZM54.4619 45.5818C55.2394 45.0296 55.0841 43.5425 54.1839 42.919L49.9925 40.0161C49.3836 39.5943 48.6858 39.59 48.1842 40.0047L46.9349 41.0377C46.2182 41.6303 46.4008 43.0537 47.2707 43.6562L48.2351 44.3241C48.416 44.4494 48.4462 44.7488 48.2889 44.8579L42.7159 48.724C41.9294 49.2697 42.0803 50.7664 42.9851 51.3931L43.8304 51.9785C44.0034 52.0983 44.0407 52.381 43.8993 52.5007L40.1414 55.6821C39.1007 56.5631 40.3099 58.7455 41.4678 58.076L49.606 53.3704C50.4595 52.8768 50.3427 51.309 49.4039 50.6588L48.7537 50.2085C48.5736 50.0838 48.5426 49.7864 48.6981 49.6759L54.4619 45.5818Z" fill="black"/>
<path d="M45.8164 32.952C42.7114 36.6364 39.8291 40.3465 37.256 45.6082C34.5661 51.2333 32.2543 57.2872 30.4029 63.5545C30.3176 63.8753 30.1777 64.1711 30.0089 64.3876C29.84 64.6041 29.6535 64.7268 29.4835 64.7333C29.2934 64.7146 29.1446 64.5494 29.0696 64.2739C28.9946 63.9984 28.9997 63.635 29.0835 63.2635C29.4421 60.1918 29.9785 57.0764 30.684 53.9685C32.3115 47.4055 35.068 40.2535 37.6959 36.1344L37.6223 36.2891C40.3532 31.7549 42.9375 29.4741 45.4409 29.9201C45.7105 29.968 45.9715 30.0496 46.2224 30.1642L46.1819 30.157C46.3253 30.2023 46.4396 30.3369 46.5093 30.5423C46.5789 30.7478 46.6005 31.014 46.5709 31.3045C46.5413 31.595 46.4621 31.8955 46.3441 32.1647C46.2261 32.4339 46.0752 32.6587 45.912 32.8081" fill="black"/>
<path d="M32.9622 79.5822C32.9246 79.3971 32.8437 79.2617 32.7333 79.1991C32.6229 79.1365 32.4898 79.1506 32.3569 79.239C32.239 79.3338 32.1307 79.4822 32.0476 79.6632C31.9645 79.8441 31.9108 80.0483 31.8942 80.2465L31.8864 80.177C31.8573 80.3707 31.8143 80.565 31.7584 80.7555C31.1766 82.7309 29.315 83.8478 27.614 83.2199C25.913 82.592 24.921 80.768 25.501 78.7986C25.6117 78.4488 25.7456 78.1111 25.8993 77.7939C26.0358 77.5438 26.1975 77.3362 26.3706 77.189C26.4936 77.025 26.597 76.8191 26.6695 76.5937C26.6901 76.453 26.687 76.3179 26.6606 76.2043C26.5953 76.0295 26.4905 75.9135 26.361 75.8729C26.2315 75.8323 26.084 75.8691 25.9397 75.9781L26.0327 75.9259C24.2283 76.5247 22.8473 78.1918 22.2585 80.1912C21.2735 83.5356 22.9351 87.1513 25.9612 88.2683C28.9873 89.3853 32.2407 87.5839 33.2257 84.2395C33.6978 82.6364 33.5758 80.8805 32.8938 79.3706" fill="black"/>
<path fill-rule="evenodd" clip-rule="evenodd" d="M57.429 64.018C57.3436 63.4235 57.1212 63.0148 56.7323 63.4087C56.1376 64.0112 54.6468 65.2177 53.3623 65.4044C52.7808 65.4889 52.0962 64.8792 51.6891 65.9024V65.9024C51.5847 66.165 51.5389 66.707 51.8357 66.9588C53.8071 68.6311 56.0241 66.6742 56.8796 65.8076C57.2684 65.4137 57.5144 64.6125 57.429 64.018Z" fill="black"/>
<path fill-rule="evenodd" clip-rule="evenodd" d="M59.8924 57.5726C56.6063 62.8123 53.4005 63.4563 51.4351 61.7474C51.1402 61.491 50.9718 61.0365 51.2393 60.3711C51.5068 59.7056 51.8596 59.7612 52.2982 59.7124C54.2039 60.146 56.216 58.9137 59.009 54.4603C59.3552 53.9082 59.8775 55.0574 60.0741 55.5089C60.2707 55.9603 60.2387 57.0205 59.8924 57.5726Z" fill="black"/>
</g>
<defs>
<linearGradient id="paint0_linear_106_10" x1="32.4789" y1="21.5648" x2="43.2261" y2="165.076" gradientUnits="userSpaceOnUse">
<stop stop-color="#030303"/>
<stop offset="0.412804" stop-color="#D2FF2D"/>
<stop offset="0.989583"/>
</linearGradient>
<clipPath id="clip0_106_10">
<rect width="96" height="131" fill="white"/>
</clipPath>
</defs>
</svg>
