<svg width="64" height="87" viewBox="0 0 64 87" fill="none" xmlns="http://www.w3.org/2000/svg">
<g clip-path="url(#clip0_156_6)">
<path d="M15.3621 5.53742C25.3535 5.49893 37.8845 15.1511 46.831 31.0098C55.7775 46.8686 58.5572 64.3355 54.7629 75.3469L56.2287 77.9511L49.4135 83.4125C39.1507 91.6338 21.351 81.5115 9.66327 60.7972C-2.02426 40.083 -3.18452 16.6206 7.0704 8.41249L13.8857 2.95106L15.3621 5.53742Z" fill="url(#paint0_linear_156_6)"/>
<path d="M16.4812 55.3393C4.79072 34.6248 3.63515 11.1647 13.8993 2.93947C24.1639 -5.28562 41.9618 4.83895 53.6521 25.5534C65.3423 46.2679 66.4981 69.7282 56.2335 77.9535C45.9692 86.1784 28.1714 76.0539 16.4812 55.3393Z" fill="#D2FF2D"/>
<path d="M22.4934 50.5171C13.2762 34.1848 11.7247 16.2007 19.0282 10.3485C26.3314 4.49618 39.7238 12.9918 48.941 29.3241C58.1581 45.6563 59.7095 63.6404 52.4062 69.4927C45.1029 75.3449 31.7105 66.8493 22.4934 50.5171Z" stroke="black" stroke-width="0.831929" stroke-miterlimit="10"/>
<path fill-rule="evenodd" clip-rule="evenodd" d="M43.1505 44.0684C39.7417 31.3345 34.9085 25.1399 30.7855 22.5029L31.0086 22.7071C30.0214 21.8369 28.2595 21.205 27.7176 21.1465C26.2777 20.9903 24.9412 21.115 23.9824 22.5461C22.0797 25.3656 22.247 31.0888 25.4284 35.11C26.3502 36.2578 27.3317 37.1135 28.3091 37.6212C29.0078 38.0035 30.4019 38.8078 31.1066 39.2911L31.0075 39.2353C31.2779 39.4121 31.5799 39.5682 31.9257 39.7469C32.7955 40.1964 33.9422 40.789 35.5588 42.2146C38.3016 44.645 40.9804 47.6293 43.5273 51.0917L43.4686 50.9999C43.5819 51.1632 43.7081 51.2827 43.8342 51.3443C43.9873 51.4192 44.1315 51.4045 44.2443 51.3024C44.3571 51.2004 44.4322 51.0167 44.4578 50.7801C44.4834 50.5434 44.4581 50.267 44.3859 49.994L44.4381 50.1891C44.1266 48.1511 43.6948 46.0985 43.1505 44.0684ZM27.7146 30.1069C27.0678 29.6475 27.197 28.4103 27.9459 27.8916L30.1733 26.349C30.6799 25.9981 31.2604 25.9945 31.6777 26.3395L32.0828 26.6745C32.679 27.1675 32.5271 28.3516 31.8034 28.8529L31.5736 29.012C31.4231 29.1163 31.398 29.3653 31.5288 29.4561L34.8184 31.7381C35.4727 32.1921 35.3472 33.4372 34.5944 33.9586L34.4637 34.0491C34.3198 34.1488 34.2887 34.3839 34.4064 34.4835L34.7694 34.7909C35.6352 35.5238 34.6292 37.3394 33.6659 36.7824L30.9289 35.1998C30.2291 34.7952 30.3249 33.5098 31.0946 32.9767C31.2422 32.8745 31.2677 32.6306 31.1402 32.5401L27.7146 30.1069Z" fill="black"/>
<path d="M33.092 21.5842C35.1336 24.0068 37.0288 26.4463 38.7206 29.9059C40.4893 33.6045 42.0094 37.5851 43.2267 41.7059C43.2828 41.9169 43.3747 42.1113 43.4858 42.2537C43.5968 42.396 43.7194 42.4767 43.8312 42.481C43.9562 42.4687 44.054 42.3601 44.1033 42.1789C44.1526 41.9978 44.1493 41.7589 44.0942 41.5146C43.8584 39.4949 43.5057 37.4464 43.0419 35.403C41.9718 31.0877 40.1593 26.3851 38.4314 23.6768L38.4798 23.7785C36.6842 20.7971 34.985 19.2975 33.3389 19.5907C33.1617 19.6223 32.9901 19.6759 32.8251 19.7513L32.8517 19.7465C32.7575 19.7763 32.6823 19.8648 32.6365 19.9999C32.5907 20.135 32.5765 20.31 32.596 20.501C32.6154 20.692 32.6675 20.8896 32.7451 21.0666C32.8226 21.2436 32.9219 21.3914 33.0292 21.4897" fill="black"/>
<path d="M41.5439 52.2444C41.5687 52.1227 41.6219 52.0337 41.6945 51.9925C41.767 51.9513 41.8545 51.9606 41.9419 52.0187C42.0194 52.0811 42.0906 52.1787 42.1453 52.2977C42.1999 52.4167 42.2352 52.5509 42.2461 52.6812L42.2513 52.6355C42.2704 52.7629 42.2987 52.8907 42.3354 53.0159C42.718 54.3148 43.942 55.0491 45.0605 54.6363C46.1789 54.2234 46.8311 53.0241 46.4498 51.7292C46.377 51.4992 46.289 51.2772 46.1879 51.0686C46.0981 50.9042 45.9918 50.7677 45.878 50.6709C45.7971 50.563 45.7291 50.4276 45.6815 50.2794C45.6679 50.187 45.67 50.0981 45.6873 50.0234C45.7302 49.9085 45.7992 49.8322 45.8843 49.8055C45.9695 49.7788 46.0664 49.803 46.1614 49.8747L46.1002 49.8404C47.2866 50.2341 48.1946 51.3302 48.5818 52.6449C49.2294 54.8439 48.1369 57.2212 46.1472 57.9557C44.1575 58.6901 42.0183 57.5057 41.3707 55.3067C41.0602 54.2526 41.1405 53.0981 41.5889 52.1053" fill="black"/>
<path fill-rule="evenodd" clip-rule="evenodd" d="M25.4567 42.0106C25.5128 41.6197 25.6591 41.351 25.9148 41.61C26.3058 42.0062 27.2861 42.7995 28.1306 42.9222C28.513 42.9778 28.9631 42.5769 29.2308 43.2497V43.2497C29.2995 43.4224 29.3295 43.7787 29.1344 43.9442C27.8382 45.0438 26.3804 43.7571 25.818 43.1874C25.5623 42.9283 25.4005 42.4015 25.4567 42.0106Z" fill="black"/>
<path fill-rule="evenodd" clip-rule="evenodd" d="M23.8368 37.7726C25.9975 41.2179 28.1054 41.6413 29.3977 40.5177C29.5916 40.3491 29.7023 40.0503 29.5264 39.6127C29.3505 39.1752 29.1185 39.2117 28.8301 39.1796C27.5771 39.4647 26.2542 38.6545 24.4177 35.7262C24.19 35.3633 23.8466 36.1189 23.7174 36.4157C23.5881 36.7126 23.6092 37.4096 23.8368 37.7726Z" fill="black"/>
</g>
<defs>
<linearGradient id="paint0_linear_156_6" x1="41.8617" y1="14.0971" x2="34.7952" y2="108.458" gradientUnits="userSpaceOnUse">
<stop stop-color="#030303"/>
<stop offset="0.412804" stop-color="#D2FF2D"/>
<stop offset="0.989583"/>
</linearGradient>
<clipPath id="clip0_156_6">
<rect width="64" height="87" fill="white"/>
</clipPath>
</defs>
</svg>
