<svg width="42" height="45" viewBox="0 0 42 45" fill="none" xmlns="http://www.w3.org/2000/svg">
<mask id="mask0_33_1088" style="mask-type:alpha" maskUnits="userSpaceOnUse" x="0" y="0" width="42" height="45">
<path fill-rule="evenodd" clip-rule="evenodd" d="M8.15414 29.4806C6.53492 16.1903 11.8862 8.1612 18.1579 3.72591L17.8582 4.02199C19.206 2.74226 22.2053 1.29818 23.2154 0.977889C25.8987 0.126211 28.5635 -0.418371 31.3401 0.414268C36.837 2.04792 40.2035 7.34887 36.6448 12.5826C35.6025 14.0832 34.2563 15.3469 32.694 16.2913C31.5894 16.9841 29.4125 18.4042 28.3615 19.192L28.5172 19.0923C28.1083 19.3867 27.625 19.6778 27.0716 20.0111C25.6796 20.8494 23.8445 21.9546 21.6378 24.0507C17.9015 27.6179 14.646 31.6586 11.9539 36.0702L12.008 35.9575C11.8945 36.1623 11.7273 36.3334 11.5234 36.4516C11.2755 36.5954 10.9871 36.653 10.7033 36.6155C10.4194 36.578 10.1559 36.4476 9.9538 36.2444C9.75172 36.0412 9.62239 35.7767 9.58596 35.4922L9.61077 35.6958C8.89895 33.6841 8.41046 31.5997 8.15414 29.4806ZM28.9359 9.19413C29.7051 8.59968 29.3242 7.36882 28.3535 7.31214L20.4663 6.85167C20.0766 6.82891 19.6938 6.96193 19.4022 7.22146L18.4051 8.10903C17.7055 8.73174 18.1084 9.88984 19.0436 9.94444L21.0763 10.0631C21.2715 10.0745 21.347 10.3228 21.1911 10.4408L16.3746 14.087C15.5953 14.6769 15.9728 15.9183 16.9487 15.9753L18.7442 16.0801C18.9291 16.0909 19.0109 16.3183 18.8751 16.4443L13.3517 21.5678C12.3985 22.4521 13.584 23.94 14.6589 23.2084L26.1009 15.4205C26.9307 14.8557 26.5721 13.5598 25.5698 13.5013L24.0783 13.4142C23.8841 13.4029 23.808 13.1567 23.9618 13.0378L28.9359 9.19413Z" fill="white"/>
<path d="M13.1051 4.02273C10.7196 7.23733 8.62797 10.3952 7.58732 14.3832C6.55217 18.6268 6.17958 23.0052 6.48284 27.3623C6.51038 27.5822 6.4579 27.8049 6.33501 27.9893C6.21212 28.1738 6.02704 28.3078 5.81368 28.3668C5.56408 28.4171 5.30481 28.3663 5.09269 28.2254C4.88056 28.0845 4.7329 27.865 4.68205 27.6151C3.83566 25.6574 3.19688 23.6158 2.77623 21.524C2.06307 17.0621 2.53552 11.8815 4.1303 8.56077L4.10232 8.67737C5.65198 5.0744 7.97055 2.87002 11.3424 2.32663C11.7054 2.26803 12.0718 2.23238 12.4393 2.21989L12.3848 2.22868C12.5863 2.20937 12.7888 2.25302 12.9644 2.35364C13.1401 2.45427 13.2803 2.60693 13.3659 2.79067C13.4514 2.9744 13.4781 3.18021 13.4422 3.37983C13.4064 3.57945 13.3097 3.7631 13.1656 3.90556" fill="white"/>
<path d="M16.5315 36.1437C16.4052 36.0449 16.2449 35.9899 16.078 35.9881C15.9111 35.9863 15.748 36.0379 15.6165 36.1339C15.5067 36.229 15.4321 36.353 15.4031 36.4884C15.3742 36.6238 15.3925 36.7636 15.4554 36.8878L15.416 36.8487C15.4611 36.9742 15.4889 37.1047 15.4985 37.237C15.5963 38.6098 13.703 39.8823 11.2742 40.0568C8.84552 40.2313 6.81105 39.4589 6.71354 38.0903C6.70596 37.8448 6.73301 37.599 6.79401 37.359C6.86154 37.1649 6.97914 36.988 7.13673 36.8437C7.22359 36.7055 7.26775 36.5486 7.26441 36.39C7.23092 36.299 7.16971 36.219 7.08798 36.1594C6.9309 36.0758 6.74841 36.0402 6.56657 36.0577C6.38473 36.0753 6.21286 36.1452 6.07552 36.2573L6.17171 36.1959C4.13148 37.1393 3.08254 38.586 3.18153 39.9755C3.34711 42.2996 6.99238 43.9292 11.3132 43.6188C15.6339 43.3084 19.0065 41.1747 18.8409 38.8506C18.7616 37.7365 17.862 36.7233 16.3549 36.0389" fill="white"/>
<path fill-rule="evenodd" clip-rule="evenodd" d="M41.0387 18.8879C40.6781 18.5592 40.2221 18.3862 39.8947 18.7483C39.393 19.3033 38.0041 20.5135 36.4462 21.0397C35.7442 21.2768 34.6232 21.1377 34.5402 21.8767C34.5187 22.068 34.6904 22.4078 35.1744 22.4626C38.3897 22.8267 40.3787 20.9354 41.0989 20.1388C41.4263 19.7767 41.3993 19.2167 41.0387 18.8879Z" fill="white"/>
<path fill-rule="evenodd" clip-rule="evenodd" d="M41.4381 14.2261C39.4816 18.4318 35.679 19.8562 32.4558 19.4682C31.9722 19.41 31.5655 19.192 31.6234 18.7064C31.6814 18.2208 32.1535 18.1399 32.6904 17.9685C35.297 17.6113 37.3327 16.2209 38.9956 12.6462C39.2017 12.2031 40.3529 12.723 40.7942 12.93C41.2355 13.137 41.6443 13.7829 41.4381 14.2261Z" fill="white"/>
</mask>
<g mask="url(#mask0_33_1088)">
<rect x="-9" y="-7" width="68" height="64" fill="url(#paint0_linear_33_1088)"/>
</g>
<defs>
<linearGradient id="paint0_linear_33_1088" x1="25" y1="-7" x2="25" y2="57" gradientUnits="userSpaceOnUse">
<stop stop-color="#B8BB9B"/>
<stop offset="1" stop-color="#C2D473"/>
</linearGradient>
</defs>
</svg>
