<svg width="56" height="58" viewBox="0 0 56 58" fill="none" xmlns="http://www.w3.org/2000/svg">
	<path fill-rule="evenodd" clip-rule="evenodd" d="M12.4837 38.7477C10.4019 21.7306 17.282 11.4499 25.3457 5.77091L24.9604 6.15002C26.6933 4.51142 30.5495 2.66239 31.8482 2.25229C35.2981 1.16178 38.7243 0.464485 42.2942 1.53061C49.3617 3.62238 53.69 10.4098 49.1145 17.1112C47.7745 19.0326 46.0437 20.6507 44.0349 21.8599C42.6148 22.7469 39.8158 24.5653 38.4645 25.574L38.6647 25.4463C38.1391 25.8233 37.5176 26.1961 36.8061 26.6228C35.0165 27.6962 32.657 29.1113 29.8198 31.7952C25.016 36.3627 20.8304 41.5365 17.3691 47.1852L17.4387 47.041C17.2927 47.3031 17.0778 47.5222 16.8156 47.6736C16.4968 47.8577 16.1261 47.9315 15.7611 47.8835C15.3962 47.8355 15.0574 47.6684 14.7976 47.4082C14.5377 47.1481 14.3715 46.8095 14.3246 46.4451L14.3565 46.7059C13.4413 44.13 12.8133 41.4611 12.4837 38.7477ZM39.2359 12.7474C40.2117 11.9965 39.7312 10.4372 38.502 10.3657L28.2988 9.77246C27.8071 9.74387 27.3242 9.91125 26.9556 10.2379L25.6358 11.4079C24.7482 12.1947 25.2567 13.662 26.4409 13.7308L29.1077 13.8859C29.3548 13.9003 29.45 14.2148 29.2523 14.3638L23.0194 19.0629C22.031 19.808 22.5071 21.3808 23.7428 21.4526L26.1081 21.5902C26.3423 21.6038 26.4454 21.8919 26.2731 22.0511L18.9859 28.783C17.7776 29.8992 19.273 31.7838 20.6346 30.8608L35.5962 20.7193C36.6484 20.0061 36.1962 18.3645 34.9271 18.2907L32.9482 18.1756C32.7023 18.1613 32.6062 17.8494 32.8014 17.6993L39.2359 12.7474Z" fill="#D2FF2D" />
	<path d="M18.8494 6.15129C15.7823 10.2673 13.0931 14.3108 11.7551 19.417C10.4242 24.8507 9.94518 30.4568 10.3351 36.0357C10.3705 36.3174 10.303 36.6024 10.145 36.8387C9.98701 37.0749 9.74905 37.2464 9.47474 37.3219C9.15382 37.3864 8.82047 37.3213 8.54774 37.1409C8.27501 36.9605 8.08515 36.6795 8.01977 36.3595C6.93156 33.8527 6.11028 31.2387 5.56944 28.5603C4.65252 22.8472 5.25995 16.2138 7.31038 11.9619L7.27441 12.1112C9.26683 7.49788 12.2479 4.67534 16.583 3.97957C17.0498 3.90454 17.5209 3.8589 17.9934 3.8429L17.9233 3.85416C18.1824 3.82943 18.4427 3.88532 18.6685 4.01416C18.8944 4.143 19.0747 4.33847 19.1847 4.57373C19.2947 4.809 19.329 5.07251 19.2829 5.32811C19.2368 5.58371 19.1125 5.81886 18.9272 6.00127" fill="#D2FF2D" />
	<path d="M23.2548 47.2797C23.0924 47.1532 22.8863 47.0828 22.6717 47.0805C22.4571 47.0783 22.2474 47.1442 22.0784 47.2672C21.9372 47.3889 21.8412 47.5478 21.804 47.7212C21.7668 47.8945 21.7903 48.0735 21.8712 48.2325L21.8206 48.1824C21.8786 48.3432 21.9142 48.5102 21.9267 48.6796C22.0524 50.4373 19.6181 52.0668 16.4954 52.2901C13.3728 52.5135 10.757 51.5246 10.6317 49.7723C10.6219 49.4579 10.6567 49.1431 10.7351 48.8359C10.822 48.5873 10.9732 48.3609 11.1758 48.1761C11.2874 47.9991 11.3442 47.7982 11.3399 47.5951C11.2969 47.4786 11.2182 47.3762 11.1131 47.2999C10.9111 47.1927 10.6765 47.1472 10.4427 47.1697C10.2089 47.1922 9.98794 47.2816 9.81136 47.4252L9.93503 47.3466C7.31188 48.5545 5.96325 50.407 6.09052 52.1861C6.30341 55.1619 10.9902 57.2484 16.5455 56.851C22.1008 56.4536 26.4369 53.7215 26.2241 50.7457C26.122 49.3192 24.9653 48.0219 23.0277 47.1456" fill="#D2FF2D" />
	<path fill-rule="evenodd" clip-rule="evenodd" d="M54.7641 25.1849C54.3004 24.764 53.7142 24.5425 53.2932 25.0061C52.6481 25.7168 50.8624 27.2664 48.8592 27.9401C47.9567 28.2436 46.5156 28.0657 46.4088 29.0119C46.3812 29.2568 46.6019 29.6918 47.2242 29.762C51.3581 30.2283 53.9154 27.8066 54.8414 26.7866C55.2624 26.323 55.2277 25.6059 54.7641 25.1849Z" fill="#D2FF2D" />
	<path fill-rule="evenodd" clip-rule="evenodd" d="M55.2777 19.2154C52.7621 24.6005 47.8731 26.4243 43.729 25.9275C43.1072 25.853 42.5842 25.5739 42.6588 24.9521C42.7333 24.3303 43.3403 24.2268 44.0306 24.0073C47.3819 23.5499 49.9992 21.7696 52.1372 17.1925C52.4023 16.6252 53.8824 17.2908 54.4498 17.5559C55.0171 17.8209 55.5427 18.648 55.2777 19.2154Z" fill="#D2FF2D" />
	<path fill-rule="evenodd" clip-rule="evenodd" d="M10.4837 37.7477C8.40185 20.7306 15.282 10.4499 23.3457 4.77091L22.9604 5.15002C24.6933 3.51142 28.5495 1.66239 29.8482 1.25229C33.2981 0.161778 36.7243 -0.535515 40.2942 0.530613C47.3617 2.62238 51.69 9.40982 47.1145 16.1112C45.7745 18.0326 44.0437 19.6507 42.0349 20.8599C40.6148 21.7469 37.8158 23.5653 36.4645 24.574L36.6647 24.4463C36.1391 24.8233 35.5176 25.1961 34.8061 25.6228C33.0165 26.6962 30.657 28.1113 27.8198 30.7952C23.016 35.3627 18.8304 40.5365 15.3691 46.1852L15.4387 46.041C15.2927 46.3031 15.0778 46.5222 14.8156 46.6736C14.4968 46.8577 14.1261 46.9315 13.7611 46.8835C13.3962 46.8355 13.0574 46.6684 12.7976 46.4082C12.5377 46.1481 12.3715 45.8095 12.3246 45.4451L12.3565 45.7059C11.4413 43.13 10.8133 40.4611 10.4837 37.7477ZM37.2359 11.7474C38.2117 10.9965 37.7312 9.43717 36.502 9.3657L26.2988 8.77246C25.8071 8.74387 25.3242 8.91125 24.9556 9.23795L23.6358 10.4079C22.7482 11.1947 23.2567 12.662 24.4409 12.7308L27.1077 12.8859C27.3548 12.9003 27.45 13.2148 27.2523 13.3638L21.0194 18.0629C20.031 18.808 20.5071 20.3808 21.7428 20.4526L24.1081 20.5902C24.3423 20.6038 24.4454 20.8919 24.2731 21.0511L16.9859 27.783C15.7776 28.8992 17.273 30.7838 18.6346 29.8608L33.5962 19.7193C34.6484 19.0061 34.1962 17.3645 32.9271 17.2907L30.9482 17.1756C30.7023 17.1613 30.6062 16.8494 30.8014 16.6993L37.2359 11.7474Z" fill="black" />
	<path d="M16.8494 5.15129C13.7823 9.26733 11.0931 13.3108 9.75513 18.417C8.42421 23.8507 7.94518 29.4568 8.33507 35.0357C8.37049 35.3174 8.30301 35.6024 8.14501 35.8387C7.98701 36.0749 7.74905 36.2464 7.47474 36.3219C7.15382 36.3864 6.82047 36.3213 6.54774 36.1409C6.27501 35.9605 6.08515 35.6795 6.01977 35.3595C4.93156 32.8527 4.11028 30.2387 3.56944 27.5603C2.65252 21.8472 3.25995 15.2138 5.31038 10.9619L5.27441 11.1112C7.26683 6.49788 10.2479 3.67534 14.583 2.97957C15.0498 2.90454 15.5209 2.8589 15.9934 2.8429L15.9233 2.85416C16.1824 2.82943 16.4427 2.88532 16.6685 3.01416C16.8944 3.143 17.0747 3.33847 17.1847 3.57373C17.2947 3.809 17.329 4.07251 17.2829 4.32811C17.2368 4.58371 17.1125 4.81886 16.9272 5.00127" fill="black" />
	<path d="M21.2548 46.2797C21.0924 46.1532 20.8863 46.0828 20.6717 46.0805C20.4571 46.0783 20.2474 46.1442 20.0784 46.2672C19.9372 46.3889 19.8412 46.5478 19.804 46.7212C19.7668 46.8945 19.7903 47.0735 19.8712 47.2325L19.8206 47.1824C19.8786 47.3432 19.9142 47.5102 19.9267 47.6796C20.0524 49.4373 17.6181 51.0668 14.4954 51.2901C11.3728 51.5135 8.75704 50.5246 8.63168 48.7723C8.62193 48.4579 8.6567 48.1431 8.73513 47.8359C8.82196 47.5873 8.97316 47.3609 9.17577 47.1761C9.28745 46.9991 9.34423 46.7982 9.33993 46.5951C9.29688 46.4786 9.21818 46.3762 9.11309 46.2999C8.91114 46.1927 8.6765 46.1472 8.44271 46.1697C8.20891 46.1922 7.98794 46.2816 7.81136 46.4252L7.93503 46.3466C5.31188 47.5545 3.96325 49.407 4.09052 51.1861C4.30341 54.1619 8.99019 56.2484 14.5455 55.851C20.1008 55.4536 24.4369 52.7215 24.2241 49.7457C24.122 48.3192 22.9653 47.0219 21.0277 46.1456" fill="black" />
	<path fill-rule="evenodd" clip-rule="evenodd" d="M52.7641 24.1849C52.3004 23.764 51.7142 23.5425 51.2932 24.0061C50.6481 24.7168 48.8624 26.2664 46.8592 26.9401C45.9567 27.2436 44.5156 27.0657 44.4088 28.0119C44.3812 28.2568 44.6019 28.6918 45.2242 28.762C49.3581 29.2283 51.9154 26.8066 52.8414 25.7866C53.2624 25.323 53.2277 24.6059 52.7641 24.1849Z" fill="black" />
	<path fill-rule="evenodd" clip-rule="evenodd" d="M53.2777 18.2154C50.7621 23.6005 45.8731 25.4243 41.729 24.9275C41.1072 24.853 40.5842 24.5739 40.6588 23.9521C40.7333 23.3303 41.3403 23.2268 42.0306 23.0073C45.3819 22.5499 47.9992 20.7696 50.1372 16.1925C50.4023 15.6252 51.8824 16.2908 52.4498 16.5559C53.0171 16.8209 53.5427 17.648 53.2777 18.2154Z" fill="black" />
</svg>
