<svg width="30" height="30" viewBox="0 0 30 30" fill="none" xmlns="http://www.w3.org/2000/svg">
<path d="M15.0213 5.28467C9.65715 5.28467 5.30858 9.63318 5.30858 14.9974C5.30858 17.378 6.16349 19.5589 7.58501 21.2478C10.1818 20.7416 13.4636 19.5064 16.7855 17.6435C19.9167 15.8875 22.5248 13.8878 24.2788 12.0473C23.0311 8.12342 19.3584 5.28467 15.0213 5.28467ZM24.3926 6.19529C23.515 6.19593 22.5197 6.32126 21.4522 6.54611C21.8589 6.85692 22.2426 7.20519 22.6 7.57061C23.2518 7.47004 23.8589 7.4097 24.3926 7.40928C25.8213 7.4078 26.68 7.77682 26.9917 8.30082C27.2186 8.68298 27.2347 9.22034 26.9442 9.97979C26.6538 10.7393 26.0595 11.6623 25.1895 12.6452C23.4496 14.6104 20.6511 16.8084 17.2502 18.7156C13.8493 20.6228 10.4849 21.8751 7.85996 22.3578C6.5475 22.5992 5.41715 22.646 4.58761 22.5096C3.75807 22.3731 3.27834 22.076 3.05091 21.6939C2.79473 21.2628 2.80764 20.6234 3.22177 19.7209C3.52114 19.0681 4.01998 18.3163 4.7015 17.5204C4.58082 17.0309 4.49486 16.5251 4.44531 16.0124C3.38461 17.1203 2.57897 18.2001 2.11193 19.2182C1.60613 20.3209 1.47805 21.4288 2.00755 22.3199C2.47757 23.1105 3.35958 23.5339 4.3979 23.7046C5.43616 23.8755 6.67367 23.8111 8.07801 23.553C8.61642 23.4539 9.18511 23.3195 9.76646 23.1641C11.2813 24.1418 13.0846 24.71 15.0212 24.71C20.3853 24.71 24.7339 20.3615 24.7339 14.9973C24.7339 14.9437 24.7349 14.8893 24.7339 14.836C25.2283 14.3712 25.6866 13.9071 26.0904 13.4513C27.0242 12.3961 27.7124 11.3733 28.0822 10.4065C28.4519 9.43961 28.5048 8.46568 28.0348 7.67473C27.3876 6.58606 26.023 6.19354 24.3924 6.19522L24.3926 6.19529Z" fill="black"/>
</svg>
